<svg xmlns="http://www.w3.org/2000/svg" width="36" height="20" viewBox="0 0 36 20">
  <g id="Logo" transform="translate(0 0)">
    <path id="Path_1" data-name="Path 1" d="M-2.591,2.947A4.046,4.046,0,0,1-5.324,5.218a11.9,11.9,0,0,1-5.238.533A9.448,9.448,0,0,1-15.57,3.957c-1.278-.981-1.865-1.991-1.763-3,.179-2.047,2.274-3,5.442-2.552l.077-.393c.1-.561.026-1.346-.383-1.486-3.679-1.206-7.307,2.019-6.8,5.019.511,2.888,3.194,4.57,8.048,5.075a13.143,13.143,0,0,0,7.282-.981A5.18,5.18,0,0,0-.47,1.713a4.514,4.514,0,0,0-1-3.7C-2.309-3.025-4.021-4.063-6.576-5.1a19.471,19.471,0,0,1-4.931-2.58c-.843-.729-1.2-1.43-1.073-2.075.1-.617.664-1.094,1.661-1.4a8.8,8.8,0,0,1,3.628-.28A5.189,5.189,0,0,1-3.51-9.67a1.927,1.927,0,0,1-.383,2.86c-.026.084.153.168.588.252,1.124.252,1.891.2,2.325-.2.613-.617.639-2.327-.741-3.841-.843-.981-2.785-1.823-5.314-2.047a9.5,9.5,0,0,0-5.57.953,3.882,3.882,0,0,0-2.3,2.86c-.179,1.991,2.2,4.094,6.618,5.888C-3.408-.922-1.875.9-2.591,2.947ZM8.4-13.231a6.727,6.727,0,0,0-5.851,2.355C.91-9.082.067-6.446-.01-2.941A10.331,10.331,0,0,0,1.5,3.087,6.191,6.191,0,0,0,5.586,5.975c2.325.449,4.931-.5,7.18-2.944l-.026-.2c-.077-.252-.23-.421-.537-.112A5.677,5.677,0,0,1,6.582,4.6C4,3.844,2.264,1.041,2.468-3.782c.128-2.972.715-5.159,1.737-6.589a4.181,4.181,0,0,1,3.807-1.991,2.2,2.2,0,0,1,2.1,2.916A1.755,1.755,0,0,1,8.422-8.072,4.217,4.217,0,0,1,5.432-9.334l-.153.561c-.2.785-.281,1.654.1,2.019,1.993,1.206,5.033.224,5.6-3.028A2.839,2.839,0,0,0,8.4-13.231ZM16.918.667a1.164,1.164,0,0,0-1.2-1.43A1.5,1.5,0,0,0,14.159.611c0,.813.511,1.4,1,1.4A2.114,2.114,0,0,0,16.918.667Z" transform="translate(19.042 13.269)"/>
  </g>
</svg>
