<?xml version="1.0" encoding="UTF-8"?>
<svg width="48px" height="48px" viewBox="0 0 48 48" version="1.1" xmlns="http://www.w3.org/2000/svg" xmlns:xlink="http://www.w3.org/1999/xlink">
    <title>Logo</title>
    <g id="Page-1" stroke="none" stroke-width="1" fill="none" fill-rule="evenodd">
        <g id="Artboard" transform="translate(-132.000000, -94.000000)">
            <g id="Logo" transform="translate(132.000000, 94.000000)">
                <circle id="Oval" fill="#FFFFFF" cx="24" cy="24" r="24"></circle>
                <g transform="translate(6.000000, 14.000000)" fill="#000000" fill-rule="nonzero" id="Path_1">
                    <path d="M16.4564064,16.1872097 C15.9442668,17.3231836 14.9356098,18.1597379 13.7229418,18.4542752 C12.038353,19.0198278 10.2482469,19.2016361 8.4840515,18.9863518 C6.67704135,18.8805315 4.93850263,18.2589249 3.47520027,17.1954599 C2.19698305,16.2161595 1.60988327,15.2079093 1.71190061,14.2006573 C1.89093104,12.1572037 3.98628713,11.2058548 7.15482561,11.6530786 L7.2318387,11.2607595 C7.33185569,10.7007314 7.25784311,9.91709142 6.8487736,9.77733397 C3.16914826,8.57342334 -0.459468402,11.7928361 0.047617775,14.7876386 C0.558704632,17.6706352 3.24216067,19.3497212 8.09698572,19.8538463 C10.5686399,20.2251689 13.0951329,19.8854579 15.3802235,18.8745459 C17.0567059,18.2124555 18.2677676,16.7280688 18.5777669,14.9553476 C18.8106145,13.6369904 18.4441232,12.283552 17.5775969,11.2617578 C16.7384543,10.2255561 15.0261633,9.1893544 12.470729,8.15415098 C10.7117064,7.53576754 9.0507995,6.66840009 7.53889088,5.57862078 C6.69574759,4.85088376 6.33868691,4.15109823 6.4657085,3.50721568 C6.56572549,2.89128462 7.12982136,2.41511102 8.12699082,2.10964116 C9.30380966,1.76516548 10.5397673,1.66995879 11.7556075,1.83012625 C13.2076362,1.86341834 14.5792486,2.50247967 15.5372502,3.59206842 C15.8982052,4.00868766 16.0629229,4.55975106 15.9896771,5.10566348 C15.9164313,5.65157589 15.6122489,6.13996545 15.1541851,6.44711353 C15.1281806,6.530968 15.3072111,6.61482247 15.742285,6.69867694 C16.8664761,6.95024036 17.6336064,6.89833045 18.0676802,6.49902344 C18.6807844,5.88309238 18.7067888,4.17605492 17.3265542,2.6646779 C16.483411,1.68537746 14.5410809,0.844836209 12.011651,0.621224284 C10.1009747,0.366988776 8.15801381,0.698787635 6.44070425,1.57257323 C5.24314041,2.07954226 4.37951231,3.15140233 4.14031331,4.42761834 C3.96128288,6.41516897 6.34068725,8.51452556 10.7594382,10.3054175 C15.6392675,12.3249127 17.1725281,14.1437561 16.4564064,16.1872097 Z M27.4492745,0.0372377856 C25.2286039,-0.19695216 23.0362068,0.68379887 21.59728,2.38815779 C19.9580014,4.17904972 19.1148582,6.8104829 19.0378451,10.3094106 C18.9105855,12.4224277 19.4378647,14.5233504 20.5481017,16.3269672 C21.4432436,17.8190675 22.9268295,18.8656769 24.6347962,19.2099638 C26.9601914,19.6581859 29.5666344,18.71083 31.8160166,16.2710642 L31.7900122,16.0714107 C31.7129991,15.8198473 31.5599731,15.6511401 31.252921,15.9596047 C29.8810649,17.5898015 27.7095618,18.3150867 25.6309655,17.8373459 C23.0485267,17.0826557 21.3122316,14.2845118 21.5162663,9.46986757 C21.644288,6.50301651 22.2313878,4.31980544 23.2535615,2.89228289 C24.0586066,1.57980507 25.5219369,0.815962501 27.0612086,0.90473226 C27.7757696,0.898311961 28.4489542,1.23862926 28.8665554,1.81739528 C29.2841565,2.39616131 29.394161,3.14128952 29.1615655,3.81568035 C28.9849259,4.60875389 28.2851894,5.17657 27.4712783,5.18729992 C26.3459739,5.18236225 25.2693071,4.72879405 24.4807701,3.92748631 L24.3277441,4.48751439 C24.1277101,5.27115439 24.0466963,6.13864886 24.4277611,6.50301651 C26.4210998,7.70692714 29.4616165,6.72662843 30.0287129,3.48026246 C30.2084606,2.67383115 30.0267067,1.82926073 29.531028,1.16763066 C29.0353493,0.506000587 28.2750954,0.0931824357 27.4492745,0.0372377856 Z M35.9687224,13.9111598 C36.0533713,13.5539859 35.9639719,13.1778918 35.7275895,12.8967386 C35.4912071,12.6155854 35.135634,12.4624291 34.7685184,12.4836372 C33.9642459,12.4492557 33.2761369,13.0545562 33.2092534,13.8552568 C33.2092534,14.6668483 33.7203403,15.2528313 34.2094234,15.2528313 C35.0023387,15.1723063 35.6825149,14.6535923 35.9687224,13.9111598 L35.9687224,13.9111598 Z"></path>
                </g>
            </g>
        </g>
    </g>
</svg>